<?xml version="1.0" encoding="utf-8"?>
<!-- Generator: Adobe Illustrator 16.2.0, SVG Export Plug-In . SVG Version: 6.00 Build 0)  -->
<!DOCTYPE svg PUBLIC "-//W3C//DTD SVG 1.1//EN" "http://www.w3.org/Graphics/SVG/1.1/DTD/svg11.dtd">
<svg width="61" height="63" xmlns="http://www.w3.org/2000/svg">
 <g>
  <title>n</title>
  <path d="m60.711998,18.860901c0,-1.177 -0.619003,-2.259001 -1.635002,-2.843l-27.085899,-15.5869c-0.458,-0.27 -0.972,-0.409 -1.491001,-0.431c-0.046993,0 -0.242001,0 -0.279995,0c-0.518013,0.021 -1.030998,0.161 -1.496006,0.431l-27.087094,15.5869c-1.009999,0.584 -1.636999,1.666 -1.636999,2.843l0.059,41.973999c0,0.586102 0.303002,1.128101 0.815999,1.411999c0.503,0.305 1.125001,0.305 1.625,0l16.097099,-9.217999c1.017996,-0.604 1.637995,-1.671001 1.637995,-2.838001v-19.608c0,-1.168999 0.620003,-2.252998 1.634003,-2.832998l6.853884,-3.948c0.511114,-0.297001 1.069,-0.441 1.640116,-0.441c0.557899,0 1.129993,0.144999 1.626999,0.441l6.851898,3.948c1.014,0.578999 1.636002,1.663 1.636002,2.832998v19.608c0,1.167 0.627998,2.242001 1.639999,2.838001l16.092999,9.217999c0.505001,0.305 1.135002,0.305 1.636002,0c0.499001,-0.284 0.812,-0.826 0.812,-1.411999l0.053001,-41.973999l0,0z" fill="#46483E" clip-rule="evenodd" fill-rule="evenodd"/>
 </g>
</svg>
